<?xml version="1.0" encoding="iso-8859-1"?>
<!-- Generator: Adobe Illustrator 18.0.0, SVG Export Plug-In . SVG Version: 6.00 Build 0)  -->
<!DOCTYPE svg PUBLIC "-//W3C//DTD SVG 1.1//EN" "http://www.w3.org/Graphics/SVG/1.1/DTD/svg11.dtd">
<svg version="1.1" id="Capa_1" xmlns="http://www.w3.org/2000/svg" xmlns:xlink="http://www.w3.org/1999/xlink" x="0px" y="0px"
	 viewBox="0 0 467 467" style="enable-background:new 0 0 467 467;" xml:space="preserve">
<g>
	<path d="M393.569,364.937h-90.69c-4.143,0-7.5,3.358-7.5,7.5v0.072l-6.826-3.656v-9.775h95.102c4.143,0,7.5-3.358,7.5-7.5V183.8
		c0-4.142-3.357-7.5-7.5-7.5h-35.182l-3.726-20.163c-0.657-3.556-3.759-6.137-7.375-6.137h-23.58c-3.616,0-6.718,2.581-7.375,6.137
		l-3.726,20.163h-35.182c-4.143,0-7.5,3.358-7.5,7.5v54.17h-7.673v-71.401c0-4.142-3.357-7.5-7.5-7.5h-8.445V151.5
		c0-11.855-9.645-21.5-21.5-21.5h-0.004v-9h10.5c2.122,0,4.145-0.899,5.566-2.474s2.11-3.678,1.895-5.789L226.433,50h13.458
		c4.143,0,7.5-3.358,7.5-7.5v-25c0-4.142-3.357-7.5-7.5-7.5h-17.548l-0.333-3.263C221.618,2.91,218.395,0,214.548,0h-57.321
		c-3.847,0-7.069,2.91-7.461,6.737L149.432,10h-17.541c-4.143,0-7.5,3.358-7.5,7.5v25c0,4.142,3.357,7.5,7.5,7.5h13.451
		l-6.416,62.737c-0.216,2.111,0.473,4.215,1.895,5.79s3.444,2.474,5.566,2.474h10.5v9h-0.006c-11.85,0-21.49,9.645-21.49,21.5v7.569
		h-8.452c-4.143,0-7.5,3.358-7.5,7.5v71.401H83.343c-4.143,0-7.5,3.358-7.5,7.5l0.004,106.108c0,4.142,3.357,7.5,7.5,7.5h95.101
		v9.775l-6.826,3.656v-0.072c0-4.142-3.357-7.5-7.5-7.5h-90.69c-4.143,0-7.5,3.358-7.5,7.5V459.5c0,4.142,3.357,7.5,7.5,7.5h90.69
		c4.143,0,7.5-3.358,7.5-7.5v-19.934h123.757V459.5c0,4.142,3.357,7.5,7.5,7.5h90.69c4.143,0,7.5-3.358,7.5-7.5v-87.063
		C401.069,368.295,397.711,364.937,393.569,364.937z M320.033,165h11.098l2.088,11.3h-15.273L320.033,165z M275.009,191.3h101.145
		V322.74v21.338H275.009V191.3z M232.391,25v10h-7.492l-1.022-10H232.391z M139.391,35V25h8.507l-1.022,10H139.391z M164,15h43.776
		l9.306,91h-62.389L164,15z M199.887,121v18.922h-28V121H199.887z M150.391,151.5c0-3.584,2.911-6.5,6.49-6.5h0.006v2.422
		c0,4.142,3.357,7.5,7.5,7.5h43c4.143,0,7.5-3.358,7.5-7.5V145h0.004c3.584,0,6.5,2.916,6.5,6.5v7.569h-71V151.5z M237.336,174.069
		v119.222h-8.102v-16.08c0-4.142-3.357-7.5-7.5-7.5h-24.297c-4.143,0-7.5,3.358-7.5,7.5v16.08h-8.101v-16.08
		c0-4.142-3.357-7.5-7.5-7.5H150.04c-4.143,0-7.5,3.358-7.5,7.5v16.08h-8.101V214h67.992c4.143,0,7.5-3.358,7.5-7.5
		s-3.357-7.5-7.5-7.5h-67.992v-24.931H237.336z M90.843,252.97h28.596v47.821c0,4.142,3.357,7.5,7.5,7.5h23.101
		c4.143,0,7.5-3.358,7.5-7.5v-16.08h9.298v16.08c0,4.142,3.357,7.5,7.5,7.5h23.101c4.143,0,7.5-3.358,7.5-7.5v-16.08h9.297v16.08
		c0,4.142,3.357,7.5,7.5,7.5h23.102c4.143,0,7.5-3.358,7.5-7.5V252.97h7.673v62.268H90.843V252.97z M90.847,330.238h169.162v13.84
		H90.847V330.238z M273.552,359.078v6.766h-80.104v-6.766H273.552z M156.622,452h-75.69v-72.063h75.69V452z M171.622,424.566
		v-35.041l16.208-8.682h91.341l16.208,8.682v35.041H171.622z M386.069,452h-75.69v-72.063h75.69V452z"/>
	<path d="M216.503,209.369c2.462,5.844,10.983,6.134,13.704,0.335c1.311-2.795,0.768-6.164-1.366-8.393
		c-2.3-2.403-6.011-2.979-8.943-1.421C216.557,201.666,215.022,205.867,216.503,209.369
		C216.693,209.819,216.313,208.919,216.503,209.369z"/>
	<path d="M289.509,330.24h72.145c4.143,0,7.5-3.358,7.5-7.5V205.8c0-4.142-3.357-7.5-7.5-7.5h-72.145c-4.143,0-7.5,3.358-7.5,7.5
		V322.74C282.009,326.882,285.367,330.24,289.509,330.24z M297.009,213.3h57.145V315.24h-57.145V213.3z"/>
</g>
<g>
</g>
<g>
</g>
<g>
</g>
<g>
</g>
<g>
</g>
<g>
</g>
<g>
</g>
<g>
</g>
<g>
</g>
<g>
</g>
<g>
</g>
<g>
</g>
<g>
</g>
<g>
</g>
<g>
</g>
</svg>
