<?xml version="1.0" encoding="utf-8"?>
<!-- Svg Vector Icons : http://www.onlinewebfonts.com/icon -->
<!DOCTYPE svg PUBLIC "-//W3C//DTD SVG 1.1//EN" "http://www.w3.org/Graphics/SVG/1.1/DTD/svg11.dtd">
<svg version="1.1" xmlns="http://www.w3.org/2000/svg" xmlns:xlink="http://www.w3.org/1999/xlink" x="0px" y="0px" viewBox="0 0 1000 1000" enable-background="new 0 0 1000 1000" xml:space="preserve">
<metadata> Svg Vector Icons : http://www.onlinewebfonts.com/icon </metadata>
<g><path d="M146,688.6h-6.5c-16.5,0-29.9,13.4-29.9,29.9v6.5c0,16.5,13.4,29.9,29.9,29.9h6.5c16.5,0,29.9-13.4,29.9-29.9v-6.5C176,702.1,162.5,688.6,146,688.6z"/><path d="M146,423.1h-6.5c-16.5,0-29.9,13.4-29.9,29.9v6.5c0,16.5,13.4,29.9,29.9,29.9h6.5c16.5,0,29.9-13.4,29.9-29.9V453C176,436.5,162.5,423.1,146,423.1z"/><path d="M146,555.8h-6.5c-16.5,0-29.9,13.5-29.9,30v6.5c0,16.5,13.4,29.9,29.9,29.9h6.5c16.5,0,29.9-13.4,29.9-29.9v-6.5C176,569.3,162.5,555.8,146,555.8z"/><path d="M507.9,174.2c0-9.2-7.4-16.6-16.6-16.6H225.7c-9.2,0-16.6,7.4-16.6,16.6c0,9.2,7.4,16.6,16.6,16.6h265.5C500.5,190.7,507.9,183.3,507.9,174.2z"/><path d="M146,290.3h-6.5c-16.5,0-29.9,13.4-29.9,29.9v6.5c0,16.5,13.4,29.9,29.9,29.9h6.5c16.5,0,29.9-13.4,29.9-29.9v-6.5C176,303.8,162.5,290.3,146,290.3z"/><path d="M942.3,290.3H707V140.9c0-45.7-37.2-83-83-83H422.8c-7.4-28.6-33.4-49.8-64.3-49.8c-30.9,0-56.9,21.2-64.3,49.8H93c-45.8,0-83,37.2-83,83v697c0,45.8,37.2,83,83,83h269.2v23.1c0,26.2,21.5,47.7,47.7,47.7h532.4c26.2,0,47.7-21.5,47.7-47.7V338C990,311.8,968.5,290.3,942.3,290.3z M358.5,41.4c18.3,0,33.2,14.9,33.2,33.2c0,18.3-14.9,33.2-33.2,33.2c-18.3,0-33.2-14.9-33.2-33.2C325.3,56.3,340.2,41.4,358.5,41.4z M373.8,306.9l-131.5,0c-9.2,0-16.6,7.4-16.6,16.6c0,9.2,7.4,16.6,16.6,16.6l119.8,0v99.6l-119.8,0c-9.2,0-16.6,7.4-16.6,16.6c0,9.2,7.4,16.6,16.6,16.6l119.8,0v99.6l-119.8,0c-9.2,0-16.6,7.5-16.6,16.6s7.4,16.6,16.6,16.6l119.8,0v99.6l-119.8,0c-9.2,0-16.6,7.4-16.6,16.6c0,9.2,7.4,16.6,16.6,16.6l119.8,0v149.4H93c-27.5,0-49.8-22.3-49.8-49.8V141c0-27.4,22.3-49.8,49.8-49.8h201.3c1.5,5.9,3.8,11.4,6.8,16.6h-75.3c-9.2,0-16.6,7.4-16.6,16.6c0,9.2,7.4,16.6,16.6,16.6h265.5c9.2,0,16.6-7.4,16.6-16.6c0-9.2-7.4-16.6-16.6-16.6H416c3-5.1,5.3-10.7,6.8-16.6h201.3c27.5,0,49.8,22.3,49.8,49.8v149.4H409.9C395.5,290.3,382.6,296.8,373.8,306.9z M964.1,917.4c0,0.5-0.2,0.9-0.4,1.6H403.3c-0.1-1.5-0.3-3-0.3-4.4c0-43.5-0.1-87.1,0-130.6c0-5.8,0.8-11.5,1-17.3c0.1-3.1,1.4-4.6,4.3-5c12-1.5,24-3,36-4.2c1.5-0.1,3.8,1.6,4.7,3.1c12.8,21.6,25.5,43.3,38.1,65.1c1.9,3.4,3.9,4.8,8.1,4.6c46.2-1.4,92.3-2.5,138.5-3.8c3.3-0.1,5,0.9,6.5,3.8c6.7,13.3,13.8,26.4,20.5,39.7c1.4,2.7,2.9,3.9,6,3.9c14.4,0.2,28.8,0.8,43.2,0.9c1.8,0,4.6-1.5,5.2-3c3.7-8.6,10.1-14.1,17.8-19.2c27.6-18.2,55-36.8,82.4-55.4c2.5-1.7,4.4-2,7.2-0.7c10.9,4.8,21.9,9.2,32.8,14.1c2.8,1.2,4.7,1,7.2-0.7c22.5-15.5,45.1-30.8,68-46.4c10.8,9.7,21.3,19,31.7,28.5c1.1,1,1.9,2.8,1.9,4.2C964.2,836.6,964.1,877,964.1,917.4z M483.2,707.5c-0.5-4.7,0-8.3-1.3-11.2c-2.3-5-4.9-10.2-8.6-14.2c-14.7-15.8-17.6-38.9-6.6-57.9c10.7-18.5,31.2-27.2,52.9-21.9C507.5,637.2,495.6,671.6,483.2,707.5z M525.2,605c18,5,28.3,16.6,31.9,34c3.7,17.6-1,32.6-16,43.2c-13.8,9.8-28.6,10.7-44.4,3.5C506.3,658.7,515.7,632,525.2,605z M460.1,739.6c9.9-0.3,19.9-0.6,29.8-1c1.9-0.1,3.9-0.6,5.7-1.3c20.4-8.2,40.8-16.5,61-25c2-0.9,4.1-2.8,5.1-4.8c7.7-15,15-30.2,22.7-45.2c1.5-2.9,1.3-4.9-0.6-7.6c-8.1-11.7-15.9-23.6-23.9-35.4c-7.4-11-7-21.9,1.4-32.3c19.9-24.8,39.9-49.5,59.8-74.2c1-1.3,2.1-2.6,3.2-3.8c4.9-5.5,9.8-6.4,15.7-2c21.2,15.6,42.3,31.3,63.3,47.1c3.4,2.5,6.7,3.7,10.9,3.7c15.2,0.1,30.5,1,45.7,0.8c7.7-0.1,14,2.2,17.8,8.5c4.7,7.8,10.5,21.8,11.3,23.7c16,36,31.9,72,47.9,107.9c1.6,3.5,3.6,7.1,6.2,10c17.8,20.1,35.7,40,53.6,60c1.1,1.2,2.1,2.5,3.4,4c-7.9,4.9-15.4,9.5-23.1,14.3c-24.3-16.8-48.6-33.6-72.7-50.4c-1.6-1.1-2.7-2.9-3.8-4.5c-13-18.8-25.9-37.6-38.8-56.5c-0.8-1.2-1.8-2.4-2.8-3.8c-0.8,1.1-1.5,2-2.1,3c-10.3,17.3-20.6,34.8-31,52c-1.8,2.9-1.7,5.1-0.3,8.1c13.2,27.6,26.3,55.3,39.4,82.9c0.5,1,1,2.1,1.6,3.5c-7.3,4.7-14.5,9.4-21.9,14.2c-8.8-11.4-17.3-22.6-25.8-33.7c-16.7-21.8-33.3-43.7-50.1-65.4c-2.5-3.2-2.6-5.8-1.1-9.4c12.1-28.8,24-57.7,36-86.6c0.6-1.5,1.1-3,2-5.5c-4.6,2.4-8.2,4.6-12.1,6.3c-21,9.2-42.1,18.3-63.1,27.6c-2.4,1-4.8,3-6.1,5.1c-11.1,17.8-22.1,35.8-32.9,53.8c-1.8,3-4,4.8-7.5,5.7c-27.7,7.2-55.3,14.7-84,22.3c-2.3-11.2-10.3-10.8-19.1-10.5c-22.3,0.7-44.7,0.8-67.1,1.1c-1.3,0-2.8,0.3-3.9-0.1c-1.6-0.5-3.1-1.6-4.6-2.5c1.4-0.8,2.8-2.2,4.2-2.3C426.4,740.6,443.3,740.1,460.1,739.6z M960.8,503.8c-10.1,8.8-20,17.8-30.3,27c-22.8-15.5-45.3-30.8-67.6-46.1c-2.8-1.9-4.9-2.2-8-0.8c-10.7,4.8-21.6,9.2-32.4,13.8c-2.5,1.1-4.3,1.2-6.7-0.5c-30.3-20.5-60.7-40.7-90.8-61.5c-4-2.8-6.4-8.1-9-12.6c-1.6-2.7-3.1-4.1-6.5-3.9c-14.1,0.6-28.1,0.9-42.2,1.1c-3.2,0-5,1-6.5,3.9c-6.7,13.3-13.8,26.4-20.5,39.7c-1.5,2.9-3.2,3.9-6.5,3.8c-46-1.3-92-2.3-138-3.8c-4.6-0.1-6.7,1.5-8.8,5.1c-12.3,21.4-24.9,42.6-37.1,64c-1.8,3.2-3.6,4.4-7.4,3.9c-12.9-1.8-25.9-3.2-39-4.8V377.4h560.9v5c0,37.9,0,75.8,0.1,113.8C964.2,499.4,963.3,501.6,960.8,503.8z"/></g>
</svg>