<?xml version="1.0" encoding="iso-8859-1"?>
<!-- Generator: Adobe Illustrator 19.0.0, SVG Export Plug-In . SVG Version: 6.00 Build 0)  -->
<svg version="1.1" id="Layer_1" xmlns="http://www.w3.org/2000/svg" xmlns:xlink="http://www.w3.org/1999/xlink" x="0px" y="0px"
	 viewBox="0 0 512 512" style="enable-background:new 0 0 512 512;" xml:space="preserve">
<g>
	<g>
		<path d="M478.316,437.895v-6.737c0-80.977-31.534-157.106-88.793-214.365c-52.468-52.468-120.786-83.316-194.154-88.114V33.684
			H60.632v40.421H0v40.421h60.632v175.158H0v40.421h60.632v40.421h134.737v-38.388c46.069,9.388,80.842,50.219,80.842,99.019v6.737
			h-33.684v40.421H512v-40.421H478.316z M154.947,330.105h-53.895v-256h53.895V330.105z M437.895,437.895H316.632v-6.737
			c0-71.146-52.795-130.187-121.263-140.024V169.19c135.467,10.355,242.526,123.893,242.526,261.968V437.895z"/>
	</g>
</g>
<g>
	<g>
		<path d="M262.269,226.619l-15.837,37.19c44.071,18.767,78.44,53.478,96.773,97.741l37.345-15.468
			C358.143,291.984,316.136,249.558,262.269,226.619z"/>
	</g>
</g>
<g>
</g>
<g>
</g>
<g>
</g>
<g>
</g>
<g>
</g>
<g>
</g>
<g>
</g>
<g>
</g>
<g>
</g>
<g>
</g>
<g>
</g>
<g>
</g>
<g>
</g>
<g>
</g>
<g>
</g>
</svg>
