<?xml version="1.0" encoding="iso-8859-1"?>
<!-- Generator: Adobe Illustrator 17.1.0, SVG Export Plug-In . SVG Version: 6.00 Build 0)  -->
<!DOCTYPE svg PUBLIC "-//W3C//DTD SVG 1.1//EN" "http://www.w3.org/Graphics/SVG/1.1/DTD/svg11.dtd">
<svg version="1.1" id="Capa_1" xmlns="http://www.w3.org/2000/svg" xmlns:xlink="http://www.w3.org/1999/xlink" x="0px" y="0px"
	 viewBox="0 0 389.777 389.777" style="enable-background:new 0 0 389.777 389.777;" xml:space="preserve">
<path d="M314.26,389.777h-85.229c-5.523,0-10-4.477-10-10s4.477-10,10-10h85.229c5.051,0,9.161-3.423,9.161-7.632v-62.676h-85.017
	c-5.523,0-10-4.477-10-10s4.477-10,10-10h85.017v-21.915c-15.483,6.972-36.78,6.68-49.246-5.716
	c-3.916-3.895-3.934-10.226-0.04-14.142c3.894-3.917,10.226-3.934,14.142-0.04c6.384,6.348,22.114,5.952,31.177-0.785
	c0.003-0.002,0.006-0.004,0.009-0.006c1.259-0.937,2.581-1.809,3.957-2.617v-17.482c-15.483,6.975-36.779,6.683-49.244-5.715
	c-3.916-3.895-3.933-10.227-0.038-14.142s10.227-3.933,14.142-0.038c6.384,6.35,22.12,5.95,31.18-0.793
	c0.014-0.011,0.028-0.021,0.042-0.032c1.247-0.925,2.556-1.787,3.917-2.586v-23.215h-85.017c-5.523,0-10-4.477-10-10s4.477-10,10-10
	h81.068l-22.792-32.623c-0.478-0.447-2.365-1.36-5.206-1.36h-62.441c-5.523,0-10-4.477-10-10V68.716c0-8.271,6.729-15,15-15h51.598
	c8.271,0,15,6.729,15,15v28.892c5.216,1.598,9.627,4.546,12.366,8.449l28.551,40.865c0.623,0.866,1.109,1.835,1.431,2.877
	c0.31,1.005,0.456,2.042,0.442,3.071v33.984c5.31-0.626,10.668-0.445,15.695,0.631c5.401,1.156,8.841,6.471,7.685,11.872
	c-1.155,5.4-6.469,8.844-11.872,7.685c-3.628-0.776-7.63-0.742-11.508-0.004v20.602c5.308-0.628,10.668-0.445,15.695,0.632
	c5.4,1.156,8.841,6.472,7.685,11.872c-1.156,5.401-6.468,8.842-11.872,7.685c-3.628-0.777-7.629-0.742-11.508-0.004v41.113
	c0,0.089-0.001,0.177-0.003,0.266c0.002,0.089,0.003,0.177,0.003,0.266v72.676C343.421,377.381,330.34,389.777,314.26,389.777z
	 M248.989,96.263h31.641V73.716h-41.598v22.546H248.989z M184.308,389.777H52.752c-16.542,0-30-13.458-30-30V123.888
	c0-2.129,0.665-4.102,1.799-5.724c0.116-0.248,0.243-0.493,0.381-0.734l31.479-55.005c3.345-5.843,9.232-10.053,16.218-11.855V15
	c0-8.271,6.729-15,15-15h61.8c8.271,0,15,6.729,15,15v35.569c6.986,1.803,12.873,6.012,16.218,11.855l31.48,55.005
	c0.138,0.242,0.266,0.487,0.381,0.735c1.134,1.621,1.799,3.595,1.799,5.723v235.889C214.308,376.319,200.85,389.777,184.308,389.777
	z M42.752,284.512v75.265c0,5.514,4.486,10,10,10h131.556c5.514,0,10-4.486,10-10v-75.265H42.752z M42.752,264.512h151.556V133.888
	H42.752V264.512z M50.003,113.888h137.054L163.29,72.359c-0.767-1.341-3.355-2.766-6.639-2.766H80.409
	c-3.284,0-5.872,1.425-6.639,2.767L50.003,113.888z M92.63,49.593h51.8V20h-51.8V49.593z M108.05,182.586
	c0,7.366-6.49,13.338-14.495,13.338s-14.495-5.972-14.495-13.338c0-7.367,6.49-13.338,14.495-13.338S108.05,175.219,108.05,182.586z
	 M143.505,169.248c-8.005,0-14.495,5.972-14.495,13.338c0,7.366,6.49,13.338,14.495,13.338S158,189.952,158,182.586
	C158,175.219,151.511,169.248,143.505,169.248z M118.415,208.574c-8.005,0-14.495,5.972-14.495,13.338
	c0,7.367,6.49,13.338,14.495,13.338c8.005,0,14.495-5.972,14.495-13.338C132.909,214.546,126.42,208.574,118.415,208.574z"/>
<g>
</g>
<g>
</g>
<g>
</g>
<g>
</g>
<g>
</g>
<g>
</g>
<g>
</g>
<g>
</g>
<g>
</g>
<g>
</g>
<g>
</g>
<g>
</g>
<g>
</g>
<g>
</g>
<g>
</g>
</svg>
