<?xml version="1.0" encoding="iso-8859-1"?>
<!-- Generator: Adobe Illustrator 18.0.0, SVG Export Plug-In . SVG Version: 6.00 Build 0)  -->
<!DOCTYPE svg PUBLIC "-//W3C//DTD SVG 1.1//EN" "http://www.w3.org/Graphics/SVG/1.1/DTD/svg11.dtd">
<svg version="1.1" id="Capa_1" xmlns="http://www.w3.org/2000/svg" xmlns:xlink="http://www.w3.org/1999/xlink" x="0px" y="0px"
	 viewBox="0 0 498.5 498.5" style="enable-background:new 0 0 498.5 498.5;" xml:space="preserve">
<g>
	<path d="M403.78,301.706V151.907c0-9.469-7.704-17.172-17.173-17.172H111.896c-9.469,0-17.172,7.703-17.172,17.172v149.799
		c0,9.469,7.703,17.172,17.172,17.172h274.711C396.076,318.878,403.78,311.174,403.78,301.706z M103.225,301.706V151.907
		c0-4.781,3.891-8.672,8.672-8.672h274.711c4.782,0,8.673,3.891,8.673,8.672v149.799c0,4.781-3.891,8.672-8.673,8.672h-87.746
		c-0.489-7.91-2.839-15.322-6.612-21.811l62.793-81.762c1.31-1.706,1.139-4.122-0.398-5.626c-1.535-1.505-3.956-1.623-5.633-0.277
		l-82.282,66.04c-5.44-2.05-11.327-3.18-17.476-3.18c-26.371,0-48.002,20.642-49.61,46.615h-87.746
		C107.115,310.378,103.225,306.487,103.225,301.706z M275.166,271.069l51.625-41.435l-39.683,51.67
		C283.698,277.297,279.671,273.832,275.166,271.069z M286.182,295.206H233.22c-2.348,0-4.25,1.902-4.25,4.25
		c0,2.348,1.902,4.25,4.25,4.25h56.067c0.528,2.162,0.882,4.392,1.052,6.672h-82.174c1.593-21.282,19.406-38.115,41.088-38.115
		C265.419,272.262,279.434,281.624,286.182,295.206z"/>
	<path d="M249.253,185.35c2.348,0,4.25-1.902,4.25-4.25v-32.065c0-2.348-1.902-4.25-4.25-4.25s-4.25,1.902-4.25,4.25V181.1
		C245.003,183.448,246.905,185.35,249.253,185.35z"/>
	<path d="M120.512,144.785c-2.348,0-4.25,1.902-4.25,4.25V181.1c0,2.348,1.902,4.25,4.25,4.25c2.348,0,4.25-1.902,4.25-4.25v-32.065
		C124.762,146.687,122.859,144.785,120.512,144.785z"/>
	<path d="M377.993,185.35c2.348,0,4.25-1.902,4.25-4.25v-32.065c0-2.348-1.902-4.25-4.25-4.25c-2.348,0-4.25,1.902-4.25,4.25V181.1
		C373.743,183.448,375.646,185.35,377.993,185.35z"/>
	<path d="M326.497,185.35c2.348,0,4.25-1.902,4.25-4.25v-16.515c0-2.348-1.902-4.25-4.25-4.25c-2.348,0-4.25,1.902-4.25,4.25V181.1
		C322.247,183.448,324.149,185.35,326.497,185.35z"/>
	<path d="M352.245,185.35c2.348,0,4.25-1.902,4.25-4.25v-16.515c0-2.348-1.902-4.25-4.25-4.25c-2.348,0-4.25,1.902-4.25,4.25V181.1
		C347.995,183.448,349.897,185.35,352.245,185.35z"/>
	<path d="M300.749,185.35c2.348,0,4.25-1.902,4.25-4.25v-16.515c0-2.348-1.902-4.25-4.25-4.25c-2.348,0-4.25,1.902-4.25,4.25V181.1
		C296.499,183.448,298.401,185.35,300.749,185.35z"/>
	<path d="M275.001,185.35c2.348,0,4.25-1.902,4.25-4.25v-16.515c0-2.348-1.902-4.25-4.25-4.25c-2.348,0-4.25,1.902-4.25,4.25V181.1
		C270.751,183.448,272.653,185.35,275.001,185.35z"/>
	<path d="M223.505,185.35c2.348,0,4.25-1.902,4.25-4.25v-16.515c0-2.348-1.902-4.25-4.25-4.25c-2.348,0-4.25,1.902-4.25,4.25V181.1
		C219.255,183.448,221.157,185.35,223.505,185.35z"/>
	<path d="M202.006,181.1v-16.515c0-2.348-1.902-4.25-4.25-4.25c-2.348,0-4.25,1.902-4.25,4.25V181.1c0,2.348,1.902,4.25,4.25,4.25
		C200.104,185.35,202.006,183.448,202.006,181.1z"/>
	<path d="M172.008,160.335c-2.348,0-4.25,1.902-4.25,4.25V181.1c0,2.348,1.902,4.25,4.25,4.25c2.348,0,4.25-1.902,4.25-4.25v-16.515
		C176.258,162.238,174.355,160.335,172.008,160.335z"/>
	<path d="M146.26,160.335c-2.348,0-4.25,1.902-4.25,4.25V181.1c0,2.348,1.902,4.25,4.25,4.25c2.348,0,4.25-1.902,4.25-4.25v-16.515
		C150.51,162.238,148.607,160.335,146.26,160.335z"/>
	<path d="M494.25,140.007h-65.582v-14.522c0-9.469-7.704-17.172-17.173-17.172H87.009c-9.469,0-17.172,7.703-17.172,17.172v14.522
		H4.25c-2.348,0-4.25,1.902-4.25,4.25v209.986c0,2.348,1.902,4.25,4.25,4.25h65.587v14.521c0,9.469,7.703,17.172,17.172,17.172
		l324.486-0.001c9.469,0,17.173-7.703,17.173-17.172v-14.52h65.582c2.348,0,4.25-1.902,4.25-4.25V144.257
		C498.5,141.91,496.598,140.007,494.25,140.007z M8.5,349.994V148.507h11.052v111.796c0,2.348,1.902,4.25,4.25,4.25
		c2.348,0,4.25-1.902,4.25-4.25V148.507h41.785v201.486H8.5z M411.495,381.686l-324.486,0.001c-4.781,0-8.672-3.891-8.672-8.672
		v-8.999l115.603-0.001c2.348,0,4.25-1.902,4.25-4.25c0-2.348-1.902-4.25-4.25-4.25l-115.603,0.001v-14.471l185.955-0.002
		c2.348,0,4.25-1.902,4.25-4.25c0-2.348-1.902-4.25-4.25-4.25l-185.955,0.002V125.485c0-4.781,3.891-8.672,8.672-8.672h324.486
		c4.782,0,8.673,3.891,8.673,8.672V357.04h-91.47c-2.348,0-4.25,1.902-4.25,4.25c0,2.348,1.902,4.25,4.25,4.25h91.47v7.475
		C420.168,377.795,416.277,381.686,411.495,381.686z M490,349.994h-16.471v-89.191c0-2.348-1.902-4.25-4.25-4.25
		c-2.348,0-4.25,1.902-4.25,4.25v89.191H454.03v-36.442c0-2.348-1.902-4.25-4.25-4.25c-2.348,0-4.25,1.902-4.25,4.25v36.442h-16.862
		V148.507H490V349.994z"/>
</g>
<g>
</g>
<g>
</g>
<g>
</g>
<g>
</g>
<g>
</g>
<g>
</g>
<g>
</g>
<g>
</g>
<g>
</g>
<g>
</g>
<g>
</g>
<g>
</g>
<g>
</g>
<g>
</g>
<g>
</g>
</svg>
