<?xml version="1.0" encoding="iso-8859-1"?>
<!-- Generator: Adobe Illustrator 19.0.0, SVG Export Plug-In . SVG Version: 6.00 Build 0)  -->
<svg version="1.1" id="Capa_1" xmlns="http://www.w3.org/2000/svg" xmlns:xlink="http://www.w3.org/1999/xlink" x="0px" y="0px"
	 viewBox="0 0 490 490" style="enable-background:new 0 0 490 490;" xml:space="preserve">
<g id="bold_copy_20_">
	<path d="M455.133,282.96h-90.191V0H125.057v282.96H34.867L245,490L455.133,282.96z M125.057,313.585h30.625V282.96V30.625h178.651
		V282.96v30.625h30.625h15.466L245,447.003L109.591,313.585H125.057z"/>
	<path d="M254.096,318.684v-22.693c15.772-2.251,28.083-8.407,36.949-18.436c8.851-10.03,13.276-22.372,13.276-36.995
		c0-13.092-3.507-23.841-10.55-32.217c-7.029-8.376-20.259-15.175-39.675-20.442v-47.423c7.855,3.399,12.694,9.877,14.562,19.416
		l30.686-3.997c-2.098-12.128-6.952-21.82-14.547-29.048c-7.61-7.243-17.839-11.622-30.702-13.169v-12.02h-17.579v12.005
		c-13.904,1.378-25.051,6.569-33.427,15.588c-8.376,9.019-12.556,20.167-12.556,33.427c0,13.107,3.706,24.24,11.117,33.427
		c7.396,9.172,19.018,16.032,34.867,20.565v50.822c-4.364-2.113-8.33-5.497-11.883-10.198c-3.552-4.686-5.987-10.259-7.289-16.737
		l-31.651,3.4c2.419,15.925,7.993,28.267,16.736,36.995c8.744,8.728,20.09,13.95,34.101,15.649v22.065h17.563V318.684z
		 M254.096,221.863c7.289,2.113,12.51,5.13,15.711,9.05c3.2,3.92,4.777,8.606,4.777,14.011c0,6.064-1.899,11.331-5.696,15.818
		c-3.798,4.487-8.728,7.304-14.807,8.437v-47.316H254.096z M224.742,173.169c-2.588-3.675-3.874-7.656-3.874-11.944
		c0-4.686,1.409-8.973,4.226-12.863c2.848-3.874,6.646-6.63,11.408-8.253v41.971C231.249,179.83,227.329,176.844,224.742,173.169z"
		/>
</g>
<g>
</g>
<g>
</g>
<g>
</g>
<g>
</g>
<g>
</g>
<g>
</g>
<g>
</g>
<g>
</g>
<g>
</g>
<g>
</g>
<g>
</g>
<g>
</g>
<g>
</g>
<g>
</g>
<g>
</g>
</svg>
