<?xml version="1.0" encoding="iso-8859-1"?>
<!-- Generator: Adobe Illustrator 19.0.0, SVG Export Plug-In . SVG Version: 6.00 Build 0)  -->
<svg version="1.1" id="Layer_1" xmlns="http://www.w3.org/2000/svg" xmlns:xlink="http://www.w3.org/1999/xlink" x="0px" y="0px"
	 viewBox="0 0 295.239 295.239" style="enable-background:new 0 0 295.239 295.239;" xml:space="preserve">
<g>
	<g>
		<g>
			<path d="M285.51,197.376l-102.1-44.929c-7.286-3.205-15.014-4.829-22.981-4.829c-8.762,0-17.171,3.448-23.405,9.524H123.81v-0.3
				c0-11.876,8.876-22.024,20.648-23.6l130.871-17.529c8.638-1.148,15.148-8.586,15.148-17.3c0-9.629-7.833-17.462-17.462-17.462
				c-7.619,0-15.29,0.571-22.805,1.695l-83.895,12.59h-22.881c-5.167,0-10.219-2.095-13.876-5.748
				c-5.505-5.505-12.824-8.538-20.61-8.538H100c-8.71,0-16.619,3.386-22.567,8.871l-1.243-0.205V4.763h-9.524V88.03l-13.505-2.252
				l-10.305-0.062c-1.624,0-3.21,0.167-4.762,0.429V4.763H28.57v84.819c-8.524,4.948-14.286,14.157-14.286,24.705v2.452
				l14.286,10.205v5.776c-0.024-0.11-0.071-0.21-0.095-0.319l-0.767-3.829H0v14.286c0,19.833,11.1,37.757,28.571,46.662v100.957
				h9.524V133.743l12.762,9.114h15.81v14.286v133.333h9.524v-95.238h28.571h14.286h54.914l88.8,30.624
				c5.219,1.8,10.667,2.71,16.467,2.71c8.824,0,16.01-7.186,16.01-16.243C295.238,205.844,291.419,199.972,285.51,197.376z
				 M28.571,178.4c-11.742-7.857-19.047-21.043-19.047-35.543v-4.762h10.614c1.676,5.162,4.605,9.824,8.433,13.662V178.4z
				 M66.668,114.287v19.048H53.905v-0.001l-29.952-21.395c1.162-9.4,9.195-16.7,18.905-16.7h9.129l18.743,3.124
				C68.14,103.095,66.668,108.525,66.668,114.287z M88.361,185.715H76.19v-28.572v-42.857c0-13.129,10.681-23.81,23.81-23.81h8.948
				c5.167,0,10.219,2.095,13.876,5.748c5.505,5.505,12.824,8.538,20.61,8.538h23.233l84.957-12.69
				c7.043-1.062,14.243-1.595,21.39-1.595c4.376,0,7.938,3.562,7.938,7.938c0,3.957-2.957,7.338-6.881,7.862L143.19,123.806
				c-16.481,2.21-28.905,16.414-28.905,33.043v0.295h-9.524c-10.505,0-19.048,8.543-19.048,19.048
				C85.713,179.678,86.723,182.902,88.361,185.715z M278.948,219.048c-4.467,0-8.862-0.733-13.076-2.19l-90.31-31.143h-56.514
				h-14.286c-5.252,0-9.524-4.271-9.524-9.524s4.271-9.524,9.524-9.524h36.41l1.419-1.576c4.538-5.052,11.048-7.948,17.838-7.948
				c6.638,0,13.076,1.352,19.148,4.024l102.1,44.929c2.452,1.076,4.038,3.524,4.038,6.467
				C285.714,216.139,282.805,219.048,278.948,219.048z"/>
			<path d="M114.286,114.285c0-7.876-6.41-14.285-14.286-14.285s-14.286,6.41-14.286,14.286c0,7.876,6.41,14.285,14.286,14.285
				S114.286,122.162,114.286,114.285z M95.238,114.287c0-2.629,2.133-4.762,4.762-4.762c2.629,0,4.762,2.133,4.762,4.762
				c0,2.629-2.133,4.762-4.762,4.762C97.371,119.048,95.238,116.915,95.238,114.287z"/>
		</g>
	</g>
</g>
<g>
</g>
<g>
</g>
<g>
</g>
<g>
</g>
<g>
</g>
<g>
</g>
<g>
</g>
<g>
</g>
<g>
</g>
<g>
</g>
<g>
</g>
<g>
</g>
<g>
</g>
<g>
</g>
<g>
</g>
</svg>
