<?xml version="1.0" encoding="iso-8859-1"?>
<!-- Generator: Adobe Illustrator 18.0.0, SVG Export Plug-In . SVG Version: 6.00 Build 0)  -->
<!DOCTYPE svg PUBLIC "-//W3C//DTD SVG 1.1//EN" "http://www.w3.org/Graphics/SVG/1.1/DTD/svg11.dtd">
<svg version="1.1" id="Capa_1" xmlns="http://www.w3.org/2000/svg" xmlns:xlink="http://www.w3.org/1999/xlink" x="0px" y="0px"
	 viewBox="0 0 409.623 409.623" style="enable-background:new 0 0 409.623 409.623;" xml:space="preserve">
<g>
	<path style="fill:#211915;" d="M376.221,93.379h-88.135c-5.522,0-10,4.477-10,10v125.07h-10.754V121.392c0-5.523-4.478-10-10-10
		s-10,4.477-10,10l0,0v13H20v-13l0,0c0-5.523-4.478-10-10-10s-10,4.477-10,10v153.214c0,5.523,4.478,10,10,10h22.588
		c4.208,18.104,20.461,31.638,39.826,31.638s35.619-13.534,39.827-31.638h23.243c4.208,18.104,20.462,31.638,39.827,31.638
		s35.619-13.534,39.827-31.638h42.193c5.522,0,10-4.477,10-10v-0.128h10.754v0.128c0,5.523,4.478,10,10,10h15.594
		c4.208,18.104,20.462,31.638,39.827,31.638c19.656,0,36.113-13.94,40.016-32.451c14.917-3.34,26.101-16.679,26.101-32.588V126.781
		C409.623,108.363,394.639,93.379,376.221,93.379z M343.507,296.244c-11.522,0-20.897-9.375-20.897-20.897
		s9.375-20.897,20.897-20.897s20.897,9.375,20.897,20.897S355.029,296.244,343.507,296.244z M196.209,275.347
		c0,11.522-9.375,20.897-20.897,20.897s-20.897-9.375-20.897-20.897s9.375-20.897,20.897-20.897S196.209,263.824,196.209,275.347z
		 M93.312,275.347c0,11.522-9.375,20.897-20.897,20.897s-20.896-9.375-20.896-20.897s9.374-20.897,20.896-20.897
		S93.312,263.824,93.312,275.347z M247.332,208.417H20v-54.025h227.332V208.417z M20,228.417h227.332v36.188h-32.564
		c-4.73-17.355-20.622-30.156-39.456-30.156s-34.726,12.801-39.456,30.156H111.87c-4.73-17.355-20.622-30.156-39.456-30.156
		s-34.725,12.801-39.455,30.156H20V228.417z M267.332,248.45h10.754v6.028h-10.754V248.45z M343.507,234.45
		c-18.834,0-34.726,12.801-39.456,30.156h-5.965v-36.188h91.537v22.787c0,5.119-2.887,9.572-7.117,11.829
		C377.269,246.482,361.768,234.45,343.507,234.45z M389.623,161.309h-47.769v-20.457h47.769V161.309z M388.222,120.852h-56.367
		c-5.522,0-10,4.477-10,10v40.457c0,5.523,4.478,10,10,10h57.769v27.108h-91.537v-95.038h78.135
		C381.48,113.379,386.029,116.432,388.222,120.852z"/>
</g>
<g>
</g>
<g>
</g>
<g>
</g>
<g>
</g>
<g>
</g>
<g>
</g>
<g>
</g>
<g>
</g>
<g>
</g>
<g>
</g>
<g>
</g>
<g>
</g>
<g>
</g>
<g>
</g>
<g>
</g>
</svg>
