<?xml version="1.0" encoding="iso-8859-1"?>
<!-- Generator: Adobe Illustrator 17.1.0, SVG Export Plug-In . SVG Version: 6.00 Build 0)  -->
<!DOCTYPE svg PUBLIC "-//W3C//DTD SVG 1.1//EN" "http://www.w3.org/Graphics/SVG/1.1/DTD/svg11.dtd">
<svg version="1.1" id="Capa_1" xmlns="http://www.w3.org/2000/svg" xmlns:xlink="http://www.w3.org/1999/xlink" x="0px" y="0px"
	 viewBox="0 0 295.875 295.875" style="enable-background:new 0 0 295.875 295.875;" xml:space="preserve">
<g>
	<path d="M85.171,118.178c16.97,0,30.776-13.807,30.776-30.776c0-16.97-13.807-30.775-30.776-30.775S54.395,70.432,54.395,87.402
		C54.395,104.371,68.202,118.178,85.171,118.178z"/>
	<path d="M281.209,127.438h-104c-8.284,0-15.333,6.716-15.333,15v30h-23V152.92c19-15.596,31.092-39.176,31.092-65.517
		c0-46.85-38.031-84.965-84.88-84.965S0,40.553,0,87.402c0,25.902,11.875,49.119,29.875,64.715v126.32c0,8.284,7.049,15,15.333,15
		h79c8.284,0,14.667-6.716,14.667-15v-68h23v24c0,8.284,7.049,15,15.333,15h104c8.284,0,14.667-6.716,14.667-15v-92
		C295.875,134.153,289.493,127.438,281.209,127.438z M85.171,32.438c30.307,0,54.963,24.657,54.963,54.965
		c0,30.308-24.656,54.964-54.963,54.964c-30.307,0-54.963-24.656-54.963-54.964C30.208,57.095,54.865,32.438,85.171,32.438z
		 M187.638,167.529c-5.613,0-10.163-4.55-10.163-10.163c0-5.613,4.55-10.163,10.163-10.163c5.613,0,10.163,4.55,10.163,10.163
		C197.8,162.979,193.25,167.529,187.638,167.529z"/>
</g>
<g>
</g>
<g>
</g>
<g>
</g>
<g>
</g>
<g>
</g>
<g>
</g>
<g>
</g>
<g>
</g>
<g>
</g>
<g>
</g>
<g>
</g>
<g>
</g>
<g>
</g>
<g>
</g>
<g>
</g>
</svg>
