<?xml version="1.0" encoding="iso-8859-1"?>
<!-- Generator: Adobe Illustrator 19.0.0, SVG Export Plug-In . SVG Version: 6.00 Build 0)  -->
<svg version="1.1" id="Layer_1" xmlns="http://www.w3.org/2000/svg" xmlns:xlink="http://www.w3.org/1999/xlink" x="0px" y="0px"
	 viewBox="0 0 512.335 512.335" style="enable-background:new 0 0 512.335 512.335;" xml:space="preserve">
<g transform="translate(1 1)">
	<g>
		<path d="M502.467,238.101H485.4v-25.6c0-5.12-3.413-8.533-8.533-8.533H459.8v-68.267h42.667c2.56,0,5.12-0.853,6.827-3.413
			s2.56-5.12,1.707-7.68L476.867,5.141c-1.707-3.413-5.12-5.973-8.533-5.973H41.667c-3.413,0-6.827,2.56-8.533,5.973L-1,124.607
			c0,2.56,0,5.12,1.707,7.68s4.267,3.413,6.827,3.413H50.2v68.267H33.133c-5.12,0-8.533,3.413-8.533,8.533
			c0,5.12,3.413,8.533,8.533,8.533H50.2v281.6c0,5.12,3.413,8.533,8.533,8.533h34.133c5.12,0,8.533-3.413,8.533-8.533v-281.6h34.133
			v8.533c0,5.12,3.413,8.533,8.533,8.533H178.2v102.4H127c-5.12,0-8.533,3.413-8.533,8.533v51.2v51.2v51.2
			c0,5.12,3.413,8.533,8.533,8.533h85.333h85.333H383c5.12,0,8.533-3.413,8.533-8.533v-51.2v-51.2v-51.2
			c0-5.12-3.413-8.533-8.533-8.533h-85.333h-85.333h-17.067v-102.4h170.667c5.12,0,8.533-3.413,8.533-8.533v-8.533H408.6v281.6
			c0,5.12,3.413,8.533,8.533,8.533h34.133c5.12,0,8.533-3.413,8.533-8.533v-281.6h8.533v25.6c0,5.12,3.413,8.533,8.533,8.533h25.6
			c5.12,0,8.533-3.413,8.533-8.533S507.587,238.101,502.467,238.101z M212.333,408.767h34.133v34.133h-34.133H178.2v-34.133H212.333
			z M297.667,408.767H331.8v34.133h-34.133h-34.133v-34.133H297.667z M374.467,408.767v34.133h-25.6v-34.133H374.467z
			 M161.133,442.901h-25.6v-34.133h25.6V442.901z M135.533,459.967h34.133H203.8v34.133h-68.267V459.967z M220.867,459.967H255
			h34.133v34.133h-68.267V459.967z M374.467,494.101H306.2v-34.133h34.133h34.133V494.101z M374.467,391.701h-34.133H306.2v-34.133
			h68.267V391.701z M289.133,391.701H255h-34.133v-34.133h68.267V391.701z M203.8,391.701h-34.133h-34.133v-34.133H203.8V391.701z
			 M442.733,203.967h-17.067v-68.267h17.067V203.967z M48.493,16.234h413.013l29.013,102.4h-39.253h-34.133H92.867H58.733H18.627
			L48.493,16.234z M67.267,135.701h17.067v68.267H67.267V135.701z M84.333,494.101H67.267V221.034h17.067V494.101z M152.6,221.034
			v-17.067h25.6v17.067H152.6z M195.267,203.967h17.067v17.067h-17.067V203.967z M246.467,203.967v17.067H229.4v-17.067H246.467z
			 M357.4,221.034h-93.867v-17.067H357.4V221.034z M374.467,203.967v-8.533c0-5.12-3.413-8.533-8.533-8.533H144.067
			c-5.12,0-8.533,3.413-8.533,8.533v8.533H101.4v-68.267h307.2v68.267H374.467z M442.733,494.101h-17.067V221.034h17.067V494.101z"
			/>
	</g>
</g>
<g>
</g>
<g>
</g>
<g>
</g>
<g>
</g>
<g>
</g>
<g>
</g>
<g>
</g>
<g>
</g>
<g>
</g>
<g>
</g>
<g>
</g>
<g>
</g>
<g>
</g>
<g>
</g>
<g>
</g>
</svg>
